{
  "accessors": [
    {
      "bufferView": 2,
      "componentType": 5126,
      "count": 1918,
      "max": [
        0.9986308813095093,
        1.0,
        0.9969574213027954
      ],
      "min": [
        -0.9986306428909302,
        -1.0,
        -0.999189019203186
      ],
      "type": "VEC3"
    },
    {
      "bufferView": 2,
      "byteOffset": 23016,
      "componentType": 5126,
      "count": 1918,
      "max": [
        0.9986340403556824,
        1.0,
        0.9969622492790222
      ],
      "min": [
        -0.9986340403556824,
        -1.0,
        -0.9991919994354248
      ],
      "type": "VEC3"
    },
    {
      "bufferView": 1,
      "componentType": 5126,
      "count": 1918,
      "max": [
        1.000000238418579,
        1.0
      ],
      "min": [
        0.0,
        0.0
      ],
      "type": "VEC2"
    },
    {
      "bufferView": 0,
      "componentType": 5125,
      "count": 10716,
      "type": "SCALAR"
    },
    {
      "bufferView": 2,
      "byteOffset": 46032,
      "componentType": 5126,
      "count": 25844,
      "max": [
        19.160749435424805,
        21.75880241394043,
        20.391647338867188
      ],
      "min": [
        -20.194242477416992,
        -22.703292846679688,
        -21.14337158203125
      ],
      "type": "VEC3"
    },
    {
      "bufferView": 2,
      "byteOffset": 356160,
      "componentType": 5126,
      "count": 25844,
      "max": [
        0.9999481439590454,
        0.9999372959136963,
        0.9999936819076538
      ],
      "min": [
        -0.999947190284729,
        -0.9999650716781616,
        -0.9999921321868896
      ],
      "type": "VEC3"
    },
    {
      "bufferView": 1,
      "byteOffset": 15344,
      "componentType": 5126,
      "count": 25844,
      "max": [
        1.0,
        1.0
      ],
      "min": [
        0.0,
        0.0
      ],
      "type": "VEC2"
    },
    {
      "bufferView": 0,
      "byteOffset": 42864,
      "componentType": 5125,
      "count": 143064,
      "type": "SCALAR"
    },
    {
      "bufferView": 2,
      "byteOffset": 666288,
      "componentType": 5126,
      "count": 25844,
      "max": [
        21.14337158203125,
        21.75880241394043,
        19.160749435424805
      ],
      "min": [
        -20.391647338867188,
        -22.703292846679688,
        -20.194242477416992
      ],
      "type": "VEC3"
    },
    {
      "bufferView": 2,
      "byteOffset": 976416,
      "componentType": 5126,
      "count": 25844,
      "max": [
        0.9999921321868896,
        0.9999372959136963,
        0.9999481439590454
      ],
      "min": [
        -0.9999936819076538,
        -0.9999650716781616,
        -0.999947190284729
      ],
      "type": "VEC3"
    },
    {
      "bufferView": 1,
      "byteOffset": 222096,
      "componentType": 5126,
      "count": 25844,
      "max": [
        1.0,
        1.0
      ],
      "min": [
        0.0,
        0.0
      ],
      "type": "VEC2"
    },
    {
      "bufferView": 0,
      "byteOffset": 615120,
      "componentType": 5125,
      "count": 143064,
      "type": "SCALAR"
    },
    {
      "bufferView": 2,
      "byteOffset": 1286544,
      "componentType": 5126,
      "count": 25844,
      "max": [
        14.947457313537598,
        20.813817977905273,
        21.509727478027344
      ],
      "min": [
        -15.924324989318848,
        -22.76211166381836,
        -21.513614654541016
      ],
      "type": "VEC3"
    },
    {
      "bufferView": 2,
      "byteOffset": 1596672,
      "componentType": 5126,
      "count": 25844,
      "max": [
        0.9998142719268799,
        0.9999059438705444,
        0.9998582601547241
      ],
      "min": [
        -0.9997296333312988,
        -0.9999969005584717,
        -0.999785304069519
      ],
      "type": "VEC3"
    },
    {
      "bufferView": 1,
      "byteOffset": 428848,
      "componentType": 5126,
      "count": 25844,
      "max": [
        1.0,
        1.0
      ],
      "min": [
        0.0,
        0.0
      ],
      "type": "VEC2"
    },
    {
      "bufferView": 0,
      "byteOffset": 1187376,
      "componentType": 5125,
      "count": 143064,
      "type": "SCALAR"
    },
    {
      "bufferView": 3,
      "componentType": 5126,
      "count": 700,
      "max": [
        14.0
      ],
      "min": [
        0.019999999552965164
      ],
      "type": "SCALAR"
    },
    {
      "bufferView": 4,
      "componentType": 5126,
      "count": 700,
      "max": [
        0.0,
        0.9999772906303406,
        -0.0,
        1.0
      ],
      "min": [
        0.0,
        -0.9997956156730652,
        -0.0,
        -0.006741611752659082
      ],
      "type": "VEC4"
    },
    {
      "bufferView": 3,
      "byteOffset": 2800,
      "componentType": 5126,
      "count": 700,
      "max": [
        14.0
      ],
      "min": [
        0.019999999552965164
      ],
      "type": "SCALAR"
    },
    {
      "bufferView": 4,
      "byteOffset": 11200,
      "componentType": 5126,
      "count": 700,
      "max": [
        0.0,
        0.9999974966049194,
        -0.0,
        1.0
      ],
      "min": [
        0.0,
        -0.9999368786811829,
        -0.0,
        -0.006741547957062721
      ],
      "type": "VEC4"
    },
    {
      "bufferView": 3,
      "byteOffset": 5600,
      "componentType": 5126,
      "count": 700,
      "max": [
        14.0
      ],
      "min": [
        0.019999999552965164
      ],
      "type": "SCALAR"
    },
    {
      "bufferView": 4,
      "byteOffset": 22400,
      "componentType": 5126,
      "count": 700,
      "max": [
        0.0,
        0.9999974966049194,
        -0.0,
        1.0
      ],
      "min": [
        0.0,
        -0.9999368786811829,
        -0.0,
        -0.006741547957062721
      ],
      "type": "VEC4"
    },
    {
      "bufferView": 3,
      "byteOffset": 8400,
      "componentType": 5126,
      "count": 700,
      "max": [
        14.0
      ],
      "min": [
        0.019999999552965164
      ],
      "type": "SCALAR"
    },
    {
      "bufferView": 4,
      "byteOffset": 33600,
      "componentType": 5126,
      "count": 700,
      "max": [
        0.0,
        0.9999772906303406,
        -0.0,
        1.0
      ],
      "min": [
        0.0,
        -0.9997956156730652,
        -0.0,
        -0.006741611752659082
      ],
      "type": "VEC4"
    },
    {
      "bufferView": 3,
      "byteOffset": 11200,
      "componentType": 5126,
      "count": 700,
      "max": [
        14.0
      ],
      "min": [
        0.019999999552965164
      ],
      "type": "SCALAR"
    },
    {
      "bufferView": 4,
      "byteOffset": 44800,
      "componentType": 5126,
      "count": 700,
      "max": [
        0.0,
        0.9999974966049194,
        -0.0,
        1.0
      ],
      "min": [
        0.0,
        -0.9999368786811829,
        -0.0,
        -0.006741547957062721
      ],
      "type": "VEC4"
    },
    {
      "bufferView": 3,
      "byteOffset": 14000,
      "componentType": 5126,
      "count": 700,
      "max": [
        14.0
      ],
      "min": [
        0.019999999552965164
      ],
      "type": "SCALAR"
    },
    {
      "bufferView": 4,
      "byteOffset": 56000,
      "componentType": 5126,
      "count": 700,
      "max": [
        0.0,
        0.9999974966049194,
        -0.0,
        1.0
      ],
      "min": [
        0.0,
        -0.9999368786811829,
        -0.0,
        -0.006741547957062721
      ],
      "type": "VEC4"
    }
  ],
  "animations": [
    {
      "channels": [
        {
          "sampler": 0,
          "target": {
            "node": 5,
            "path": "rotation"
          }
        },
        {
          "sampler": 1,
          "target": {
            "node": 6,
            "path": "rotation"
          }
        },
        {
          "sampler": 2,
          "target": {
            "node": 7,
            "path": "rotation"
          }
        },
        {
          "sampler": 3,
          "target": {
            "node": 8,
            "path": "rotation"
          }
        },
        {
          "sampler": 4,
          "target": {
            "node": 10,
            "path": "rotation"
          }
        },
        {
          "sampler": 5,
          "target": {
            "node": 12,
            "path": "rotation"
          }
        }
      ],
      "name": "Animation",
      "samplers": [
        {
          "input": 16,
          "interpolation": "LINEAR",
          "output": 17
        },
        {
          "input": 18,
          "interpolation": "LINEAR",
          "output": 19
        },
        {
          "input": 20,
          "interpolation": "LINEAR",
          "output": 21
        },
        {
          "input": 22,
          "interpolation": "LINEAR",
          "output": 23
        },
        {
          "input": 24,
          "interpolation": "LINEAR",
          "output": 25
        },
        {
          "input": 26,
          "interpolation": "LINEAR",
          "output": 27
        }
      ]
    }
  ],
  "asset": {
    "extras": {
      "author": "Tycho Magnetic Anomaly (https://sketchfab.com/Tycho_Magnetic_Anomaly)",
      "license": "CC-BY-4.0 (http://creativecommons.org/licenses/by/4.0/)",
      "source": "https://sketchfab.com/3d-models/planetary-nebula-eb2c5586f4174af491a18aa6eeedc229",
      "title": "Planetary Nebula"
    },
    "generator": "Sketchfab-15.5.0",
    "version": "2.0"
  },
  "bufferViews": [
    {
      "buffer": 0,
      "byteLength": 1759632,
      "name": "floatBufferViews",
      "target": 34963
    },
    {
      "buffer": 0,
      "byteLength": 635600,
      "byteOffset": 1759632,
      "byteStride": 8,
      "name": "floatBufferViews",
      "target": 34962
    },
    {
      "buffer": 0,
      "byteLength": 1906800,
      "byteOffset": 2395232,
      "byteStride": 12,
      "name": "floatBufferViews",
      "target": 34962
    },
    {
      "buffer": 0,
      "byteLength": 16800,
      "byteOffset": 4302032,
      "name": "floatBufferViews"
    },
    {
      "buffer": 0,
      "byteLength": 67200,
      "byteOffset": 4318832,
      "byteStride": 16,
      "name": "floatBufferViews"
    }
  ],
  "buffers": [
    {
      "byteLength": 4386032,
      "uri": "scene.bin"
    }
  ],
  "extensionsUsed": [
    "KHR_materials_emissive_strength",
    "KHR_materials_specular",
    "KHR_materials_clearcoat"
  ],
  "images": [
    {
      "uri": "textures/material_baseColor.png"
    },
    {
      "uri": "textures/material_2_baseColor.png"
    },
    {
      "uri": "textures/material_3_baseColor.png"
    },
    {
      "uri": "textures/material_3_emissive.png"
    }
  ],
  "materials": [
    {
      "doubleSided": true,
      "emissiveFactor": [
        0.0,
        1.0,
        0.4333545288568754
      ],
      "extensions": {
        "KHR_materials_emissive_strength": {
          "emissiveStrength": 10.0
        },
        "KHR_materials_specular": {
          "specularColorFactor": [
            1.0,
            1.0,
            1.0
          ],
          "specularFactor": 0.0
        }
      },
      "name": "material",
      "pbrMetallicRoughness": {
        "baseColorTexture": {
          "index": 0
        },
        "metallicFactor": 0.0,
        "roughnessFactor": 0.02062179575109167
      }
    },
    {
      "alphaMode": "BLEND",
      "doubleSided": true,
      "extensions": {
        "KHR_materials_clearcoat": {
          "clearcoatFactor": 1.0,
          "clearcoatRoughnessFactor": 0.5733265948617393
        },
        "KHR_materials_specular": {
          "specularColorFactor": [
            1.0,
            1.0,
            1.0
          ],
          "specularFactor": 1.0
        }
      },
      "name": "material_1",
      "pbrMetallicRoughness": {
        "baseColorFactor": [
          0.2655705135387651,
          0.2655705135387651,
          0.2655705135387651,
          0.05183542845401261
        ],
        "baseColorTexture": {
          "index": 0
        },
        "metallicFactor": 0.5544843858011491,
        "roughnessFactor": 0.3032549316599456
      }
    },
    {
      "alphaMode": "BLEND",
      "doubleSided": true,
      "extensions": {
        "KHR_materials_clearcoat": {
          "clearcoatFactor": 1.0,
          "clearcoatRoughnessFactor": 0.4979577586193783
        },
        "KHR_materials_specular": {
          "specularColorFactor": [
            1.0,
            1.0,
            1.0
          ],
          "specularFactor": 1.0
        }
      },
      "name": "material_2",
      "pbrMetallicRoughness": {
        "baseColorFactor": [
          0.3184174659024417,
          0.3184174659024417,
          0.3184174659024417,
          0.10261295939657053
        ],
        "baseColorTexture": {
          "index": 1
        },
        "metallicFactor": 0.6172917493364499,
        "roughnessFactor": 0.3472200861346562
      }
    },
    {
      "alphaCutoff": 0.7944568184889221,
      "alphaMode": "MASK",
      "doubleSided": true,
      "emissiveFactor": [
        0.7722419392529156,
        0.7722419392529156,
        0.7722419392529156
      ],
      "emissiveTexture": {
        "index": 3
      },
      "extensions": {
        "KHR_materials_specular": {
          "specularColorFactor": [
            1.0,
            1.0,
            1.0
          ],
          "specularFactor": 1.0
        }
      },
      "name": "material_3",
      "pbrMetallicRoughness": {
        "baseColorFactor": [
          0.2596911738484583,
          0.0,
          1.0,
          1.0
        ],
        "baseColorTexture": {
          "index": 2
        },
        "metallicFactor": 0.6800991128717508,
        "roughnessFactor": 0.3882365709484588
      }
    }
  ],
  "meshes": [
    {
      "name": "Object_0",
      "primitives": [
        {
          "attributes": {
            "NORMAL": 1,
            "POSITION": 0,
            "TEXCOORD_0": 2
          },
          "indices": 3,
          "material": 0,
          "mode": 4
        }
      ]
    },
    {
      "name": "Object_1",
      "primitives": [
        {
          "attributes": {
            "NORMAL": 5,
            "POSITION": 4,
            "TEXCOORD_0": 6
          },
          "indices": 7,
          "material": 1,
          "mode": 4
        }
      ]
    },
    {
      "name": "Object_2",
      "primitives": [
        {
          "attributes": {
            "NORMAL": 9,
            "POSITION": 8,
            "TEXCOORD_0": 10
          },
          "indices": 11,
          "material": 2,
          "mode": 4
        }
      ]
    },
    {
      "name": "Object_3",
      "primitives": [
        {
          "attributes": {
            "NORMAL": 13,
            "POSITION": 12,
            "TEXCOORD_0": 14
          },
          "indices": 15,
          "material": 3,
          "mode": 4
        }
      ]
    }
  ],
  "nodes": [
    {
      "children": [
        1
      ],
      "matrix": [
        1.0,
        0.0,
        0.0,
        0.0,
        0.0,
        2.220446049250313e-16,
        -1.0,
        0.0,
        0.0,
        1.0,
        2.220446049250313e-16,
        0.0,
        0.0,
        0.0,
        0.0,
        1.0
      ],
      "name": "Sketchfab_model"
    },
    {
      "children": [
        2
      ],
      "name": "root"
    },
    {
      "children": [
        3,
        5,
        6,
        7,
        8,
        10,
        12
      ],
      "matrix": [
        1.0,
        0.0,
        0.0,
        0.0,
        0.0,
        2.220446049250313e-16,
        1.0,
        0.0,
        0.0,
        -1.0,
        2.220446049250313e-16,
        0.0,
        0.0,
        0.0,
        0.0,
        1.0
      ],
      "name": "GLTF_SceneRootNode"
    },
    {
      "children": [
        4
      ],
      "matrix": [
        1.2753652334213257,
        0.0,
        0.0,
        0.0,
        0.0,
        1.2753652334213257,
        0.0,
        0.0,
        0.0,
        0.0,
        1.2753652334213257,
        0.0,
        0.0,
        0.0,
        0.0,
        1.0
      ],
      "name": "Sphere_0"
    },
    {
      "mesh": 0,
      "name": "Object_4"
    },
    {
      "name": "Spiral.003_1"
    },
    {
      "name": "Spiral.001_2"
    },
    {
      "name": "Spiral.002_3"
    },
    {
      "children": [
        9
      ],
      "name": "Spiral.004_4"
    },
    {
      "mesh": 1,
      "name": "Object_9"
    },
    {
      "children": [
        11
      ],
      "name": "Spiral.005_5"
    },
    {
      "mesh": 2,
      "name": "Object_11"
    },
    {
      "children": [
        13
      ],
      "name": "Spiral.006_6"
    },
    {
      "mesh": 3,
      "name": "Object_13"
    }
  ],
  "samplers": [
    {
      "magFilter": 9729,
      "minFilter": 9987,
      "wrapS": 10497,
      "wrapT": 10497
    }
  ],
  "scene": 0,
  "scenes": [
    {
      "name": "Sketchfab_Scene",
      "nodes": [
        0
      ]
    }
  ],
  "textures": [
    {
      "sampler": 0,
      "source": 0
    },
    {
      "sampler": 0,
      "source": 1
    },
    {
      "sampler": 0,
      "source": 2
    },
    {
      "sampler": 0,
      "source": 3
    }
  ]
}
